HIERARCHY
ROOT Hips
{
	OFFSET 0.000000 0.000000 0.000000
	CHANNELS 6 Xposition Yposition Zposition Xrotation Yrotation Zrotation
	JOINT LeftUpLeg_virtual
	{
		OFFSET 0.000000 0.000000 0.000000
		CHANNELS 3 Xrotation Yrotation Zrotation
		JOINT LeftUpLeg
		{
			OFFSET 10.205400 -3.823500 0.155100
			CHANNELS 3 Xrotation Yrotation Zrotation
			JOINT LeftLeg
			{
				OFFSET 0.708757 -12.982077 0.567790
				CHANNELS 3 Xrotation Yrotation Zrotation
				JOINT LeftFoot
				{
					OFFSET -0.708756 -10.717838 -2.184338
					CHANNELS 3 Xrotation Yrotation Zrotation
					JOINT LeftToeBase
					{
						OFFSET 0.108149 -7.191104 7.560241
						CHANNELS 3 Xrotation Yrotation Zrotation
						JOINT LeftToe_End
						{
							OFFSET 0.070230 0.081724 4.490308
							CHANNELS 3 Xrotation Yrotation Zrotation
							End Site
							{
								OFFSET 0 0 0
							}
						}
					}
				}
			}
		}
	}
	JOINT RightUpLeg_virtual
	{
		OFFSET 0.000000 0.000000 0.000000
		CHANNELS 3 Xrotation Yrotation Zrotation
		JOINT RightUpLeg
		{
			OFFSET -10.205400 -3.823500 0.005500
			CHANNELS 3 Xrotation Yrotation Zrotation
			JOINT RightLeg
			{
				OFFSET -0.708756 -12.982134 0.610632
				CHANNELS 3 Xrotation Yrotation Zrotation
				JOINT RightFoot
				{
					OFFSET 0.708754 -10.717769 -1.945823
					CHANNELS 3 Xrotation Yrotation Zrotation
					JOINT RightToeBase
					{
						OFFSET -0.108140 -7.191069 7.372968
						CHANNELS 3 Xrotation Yrotation Zrotation
						JOINT RightToe_End
						{
							OFFSET -0.070227 0.081735 4.479403
							CHANNELS 3 Xrotation Yrotation Zrotation
							End Site
							{
								OFFSET 0 0 0
							}
						}
					}
				}
			}
		}
	}
	JOINT Spine_virtual
	{
		OFFSET 0.000000 0.000000 0.000000
		CHANNELS 3 Xrotation Yrotation Zrotation
		JOINT Spine
		{
			OFFSET 0.000000 6.876099 0.125700
			CHANNELS 3 Xrotation Yrotation Zrotation
			JOINT Spine1
			{
				OFFSET 0.000000 5.730043 0.104720
				CHANNELS 3 Xrotation Yrotation Zrotation
				JOINT Spine1_split
				{
					OFFSET 0.000000 5.730043 0.104720
					CHANNELS 3 Xrotation Yrotation Zrotation
					JOINT Spine2
					{
						OFFSET 0.000000 5.730043 0.104720
						CHANNELS 3 Xrotation Yrotation Zrotation
						JOINT Neck_virtual
						{
							OFFSET 0.000000 0.000000 0.000000
							CHANNELS 3 Xrotation Yrotation Zrotation
							JOINT Neck
							{
								OFFSET 0.000000 10.314075 0.188496
								CHANNELS 3 Xrotation Yrotation Zrotation
								JOINT Head
								{
									OFFSET 0.000000 7.643700 -2.377400
									CHANNELS 3 Xrotation Yrotation Zrotation
									JOINT HeadTop_End
									{
										OFFSET 0.000000 43.788605 -13.619600
										CHANNELS 3 Xrotation Yrotation Zrotation
										End Site
										{
											OFFSET 0 0 0
										}
									}
								}
							}
						}
						JOINT LeftShoulder_virtual
						{
							OFFSET 0.000000 0.000000 0.000000
							CHANNELS 3 Xrotation Yrotation Zrotation
							JOINT LeftShoulder
							{
								OFFSET 2.196100 4.412489 0.087492
								CHANNELS 3 Xrotation Yrotation Zrotation
								JOINT LeftShoulder_split
								{
									OFFSET 2.196100 4.412489 0.087492
									CHANNELS 3 Xrotation Yrotation Zrotation
									JOINT LeftArm
									{
										OFFSET 8.771219 -2.981674 -0.026999
										CHANNELS 3 Xrotation Yrotation Zrotation
										JOINT LeftForeArm
										{
											OFFSET 8.512804 0.000000 -0.000000
											CHANNELS 3 Xrotation Yrotation Zrotation
											JOINT LeftHand
											{
												OFFSET 18.484802 0.000000 -0.000000
												CHANNELS 3 Xrotation Yrotation Zrotation
												End Site
												{
													OFFSET 0 0 0
												}
											}
										}
									}
								}
							}
						}
						JOINT RightShoulder_virtual
						{
							OFFSET 0.000000 0.000000 0.000000
							CHANNELS 3 Xrotation Yrotation Zrotation
							JOINT RightShoulder
							{
								OFFSET -2.196100 4.412496 0.070690
								CHANNELS 3 Xrotation Yrotation Zrotation
								JOINT RightShoulder_split
								{
									OFFSET -2.196100 4.412496 0.070690
									CHANNELS 3 Xrotation Yrotation Zrotation
									JOINT RightArm
									{
										OFFSET -8.771282 -2.981682 -0.094208
										CHANNELS 3 Xrotation Yrotation Zrotation
										JOINT RightForeArm
										{
											OFFSET -8.494598 0.000000 0.000000
											CHANNELS 3 Xrotation Yrotation Zrotation
											JOINT RightHand
											{
												OFFSET -18.483803 0.000000 0.000001
												CHANNELS 3 Xrotation Yrotation Zrotation
												End Site
												{
													OFFSET 0 0 0
												}
											}
										}
									}
								}
							}
						}
					}
				}
			}
		}
	}
}
MOTION
Frames: 8
Frame Time: 0.03333333
1.207131 30.488621 -7.108212 0.000000 0.000000 0.000000 -5.189750 -8.243491 13.806800 -33.867414 -16.180462 -2.112483 29.878587 6.517868 2.332056 3.974438 -4.363183 6.458287 7.301466 -1.537093 8.193993 0.000000 0.000000 0.000000 -8.347313 -5.774329 13.848477 -17.018823 -30.679611 -35.784618 48.022264 -8.756652 0.072314 -27.870951 -24.593167 22.125824 20.312730 8.596806 -53.272815 0.000000 0.000000 0.000000 -8.145323 -8.882320 12.650164 27.793104 -5.415966 4.563920 2.088949 6.413169 6.022459 0.203185 0.107233 0.146131 0.000000 0.000000 0.000000 8.457139 8.306688 4.845390 -0.678397 7.925827 18.037193 27.876794 -10.885559 -25.440657 0.000000 0.000000 0.000000 6.571166 7.464851 3.901674 -5.660387 -35.580634 -9.182371 11.149862 -2.031501 7.393287 -12.997260 31.058468 -88.327262 31.974407 -20.416672 21.726051 0.000000 0.000000 0.000000 7.295883 7.689155 5.444713 6.294689 -9.718617 -2.132047 -13.812733 8.076690 -16.230710 -21.965593 14.480612 54.534194 20.610060 -2.366991 -1.245136 0.000000 0.000000 0.000000 
0.946977 30.706711 -6.773855 0.000000 0.000000 0.000000 -5.965601 -5.064878 14.044736 -34.085205 -12.238185 -3.959553 26.613094 6.744713 1.261636 4.838926 -5.862533 6.639635 5.791011 -1.734524 9.300349 0.000000 0.000000 0.000000 -8.266723 -3.254180 14.762409 -9.534297 -30.990382 -30.650628 48.709518 -8.889781 0.006885 -30.357148 -23.734643 17.262443 15.572292 11.453564 -53.118576 0.000000 0.000000 0.000000 -9.944859 -4.939358 13.161241 25.519721 -5.817758 4.180763 1.709606 6.665377 6.413128 -0.383183 0.779842 0.100726 0.000000 0.000000 0.000000 7.607423 8.562896 4.739803 0.312394 6.623753 18.668705 26.384970 -10.819397 -25.389980 0.000000 0.000000 0.000000 5.965036 7.584138 4.463318 -4.543018 -34.149949 -6.079081 16.467128 -2.573463 6.730871 -20.078309 31.627085 -84.368184 32.514053 -24.123060 22.339308 0.000000 0.000000 0.000000 7.317751 7.776349 5.431915 5.875075 -8.908345 -1.009439 -14.610902 11.449124 -11.155311 -22.053392 11.942710 57.106337 19.865163 -1.788565 -0.695500 0.000000 0.000000 0.000000 
0.746688 31.048656 -6.427828 0.000000 0.000000 0.000000 -7.719695 1.754578 14.945275 -33.585509 -7.756074 -6.963808 22.632810 5.186447 -0.608714 9.783757 -10.549864 6.210730 3.329520 -2.406401 12.522473 0.000000 0.000000 0.000000 -9.011324 3.692170 16.038256 2.798554 -27.969766 -22.272810 48.443694 -7.280678 -1.142998 -26.957896 -21.849768 16.213037 1.976104 16.795218 -47.454139 0.000000 0.000000 0.000000 -12.005038 3.286402 14.340411 21.742855 -6.358396 2.969004 0.990392 6.803429 7.039196 -0.503471 1.224575 0.091729 0.000000 0.000000 0.000000 6.504913 8.915285 5.303150 0.656523 5.772175 18.621473 23.541500 -11.252544 -24.250778 0.000000 0.000000 0.000000 4.591023 7.898395 5.798066 -2.758620 -29.915600 -0.892943 20.930980 -1.934444 1.935645 -27.798534 29.052876 -77.884265 33.100750 -27.588714 23.160325 0.000000 0.000000 0.000000 6.414845 7.811485 5.856867 5.929278 -6.770665 0.937207 -15.456745 11.988464 -6.775701 -21.982624 11.073569 57.492632 18.101741 -2.455143 0.144595 0.000000 0.000000 0.000000 
0.562357 31.399115 -5.890400 0.000000 0.000000 0.000000 -9.817159 10.628224 16.140242 -32.809616 -3.642809 -10.281515 19.990319 2.983365 -2.990556 18.645853 -16.340212 7.870778 1.463658 -3.324202 16.446696 0.000000 0.000000 0.000000 -10.680700 13.618395 17.410559 14.987233 -21.454848 -14.384062 46.537320 -3.739523 -2.968695 -18.972066 -18.919617 17.709265 -16.159003 19.237820 -35.631164 0.000000 0.000000 0.000000 -14.116157 13.317511 15.831205 17.437973 -6.736096 1.556955 -0.028824 6.813689 7.447703 -0.362713 1.306466 -0.028350 0.000000 0.000000 0.000000 5.141447 9.205551 6.093032 0.112156 5.394986 18.336299 19.743463 -12.074795 -22.088726 0.000000 0.000000 0.000000 2.758383 8.307259 7.126794 -1.347572 -23.537643 4.813704 23.703096 -0.371892 -5.125644 -34.231477 24.043572 -70.001960 31.949883 -28.053937 22.768232 0.000000 0.000000 0.000000 4.773713 7.742352 6.222545 6.249314 -3.610918 2.979955 -15.794090 10.688105 -3.272894 -21.423122 11.903987 55.110406 15.736703 -5.040466 0.987731 0.000000 0.000000 0.000000 
0.420191 31.630598 -5.425978 0.000000 0.000000 0.000000 -11.386577 19.686465 17.364340 -32.555485 -0.042978 -13.365198 19.136959 1.403999 -5.017120 28.405941 -20.175648 13.528325 1.512302 -3.930321 19.523503 0.000000 0.000000 0.000000 -12.603616 24.200619 18.382517 24.305664 -13.815644 -8.338556 43.103623 -0.300419 -4.473353 -10.444396 -15.506020 17.862384 -29.832398 15.692614 -22.942522 0.000000 0.000000 0.000000 -15.755368 23.843919 17.151232 13.380611 -6.574403 0.794856 -1.356434 6.757897 7.327173 -0.257065 1.157054 -0.105966 0.000000 0.000000 0.000000 3.616328 9.322029 6.465742 -1.357566 5.267392 18.091370 15.497855 -13.337058 -18.702643 0.000000 0.000000 0.000000 0.919606 8.714587 7.755977 -0.795570 -16.022960 10.327256 24.006069 1.425003 -10.690747 -38.875210 17.570933 -61.003213 28.441128 -24.968631 20.835963 0.000000 0.000000 0.000000 2.729899 7.643199 6.020159 6.493530 0.190902 4.487275 -14.754395 9.440216 -0.901461 -19.745507 13.933844 50.645317 13.366413 -9.086334 1.433579 0.000000 0.000000 0.000000 
0.231293 31.813370 -5.073551 0.000000 0.000000 0.000000 -12.236328 27.625036 17.976211 -32.053938 2.175522 -15.760004 19.088434 1.116221 -5.613615 34.935799 -20.613325 21.486578 3.530290 -3.806651 20.730985 0.000000 0.000000 0.000000 -14.174464 32.998946 18.758071 30.140361 -7.816062 -3.603607 38.237636 1.580415 -4.708640 -4.579925 -13.236739 14.824096 -34.012139 9.329839 -13.845353 0.000000 0.000000 0.000000 -16.445383 33.030863 17.634717 10.195691 -5.867962 1.145905 -2.876945 6.785498 6.403912 -0.076212 0.668104 -0.031144 0.000000 0.000000 0.000000 2.118395 9.300435 6.040672 -3.298270 5.441181 17.952662 11.227957 -14.907171 -14.055131 0.000000 0.000000 0.000000 -0.637786 9.087813 7.218410 -1.210509 -8.460507 14.857649 21.259760 2.173523 -13.580897 -42.376536 12.147481 -51.057136 23.332993 -19.483364 18.272096 0.000000 0.000000 0.000000 0.639451 7.608297 4.929407 6.487120 4.104105 4.763673 -12.727715 8.339838 -0.005039 -17.204558 16.534139 45.349246 11.439442 -13.550755 1.272559 0.000000 0.000000 0.000000 
-0.147913 32.039742 -4.842253 0.000000 0.000000 0.000000 -12.869857 34.522153 18.005622 -30.712120 2.572465 -17.743045 18.832008 1.286846 -4.621539 35.999892 -19.457134 28.357281 6.309090 -3.235847 20.158875 0.000000 0.000000 0.000000 -15.540099 39.898345 18.843114 33.278741 -5.133036 -0.180846 32.647751 1.874231 -3.615182 -2.368670 -12.646750 11.127993 -32.460645 4.602942 -9.815247 0.000000 0.000000 0.000000 -16.065839 40.780498 17.325451 7.962325 -4.655723 2.589746 -4.426284 6.963492 4.782366 -0.104661 0.103793 0.129497 0.000000 0.000000 0.000000 0.713199 9.214379 4.774561 -5.147349 5.830134 17.784061 7.344895 -16.599639 -8.025809 0.000000 0.000000 0.000000 -1.778201 9.484234 5.572976 -2.303848 -1.487028 18.000277 17.382157 2.068857 -12.865868 -46.551527 9.074262 -41.149305 17.888554 -14.387493 16.235749 0.000000 0.000000 0.000000 -1.107242 7.743058 3.010453 6.312556 7.942186 3.821569 -11.851679 6.742236 1.036862 -14.764796 18.632198 40.597538 9.999974 -16.786484 0.545143 0.000000 0.000000 0.000000 
-0.625600 32.384033 -4.894716 0.000000 0.000000 0.000000 -14.134353 40.373976 18.170431 -28.333728 0.819102 -19.337027 17.770346 0.352665 -2.329633 32.558921 -19.184415 31.785102 8.205946 -2.687689 18.569614 0.000000 0.000000 0.000000 -16.516936 43.806825 18.583855 34.011764 -5.467893 1.746722 27.274144 1.628705 -2.065466 -1.134488 -12.401979 10.658970 -30.401739 3.534699 -11.346734 0.000000 0.000000 0.000000 -15.209069 46.942374 16.782685 6.617209 -3.065426 4.636310 -5.543328 7.289011 2.816772 -0.164542 -0.305171 0.256658 0.000000 0.000000 0.000000 -0.287169 9.096371 3.010554 -6.229326 6.336228 17.213967 4.235965 -17.503243 -0.821882 0.000000 0.000000 0.000000 -2.559860 9.879746 3.410341 -3.570669 4.397313 19.588484 12.292809 0.234799 -10.817550 -51.961012 8.321317 -32.514009 13.170036 -12.139947 15.099427 0.000000 0.000000 0.000000 -2.232764 7.976504 0.736099 6.036744 11.467153 1.973321 -11.273452 4.178990 1.597044 -13.996212 19.658007 37.564166 9.101800 -17.439049 -0.612522 0.000000 0.000000 0.000000 
